<svg xmlns="http://www.w3.org/2000/svg" viewBox="0 0 250.9 382.69"><defs><style>.cls-1{fill:#4a1716;}.cls-2{fill:#010202;}.cls-3{fill:#303d5f;}.cls-12,.cls-13,.cls-4,.cls-5{fill:none;stroke-miterlimit:10;}.cls-4,.cls-5{stroke:#70706f;}.cls-4{stroke-width:2.34px;}.cls-5{stroke-width:0.58px;}.cls-6{fill:#70706f;}.cls-7{fill:#231f20;}.cls-8{fill:#adadac;}.cls-9{fill:#a97c50;}.cls-10{fill:#876340;}.cls-11{fill:#a63331;}.cls-12{stroke:#a97c50;stroke-width:3.01px;}.cls-13{stroke:#a63331;stroke-width:1.58px;}</style></defs><g id="Layer_2" data-name="Layer 2"><g id="Mask"><path class="cls-1" d="M235.66,112.32,15.4,287.13V84.9a6.81,6.81,0,0,1,6.81-6.81H228.86a6.81,6.81,0,0,1,6.8,6.81Z"/><path class="cls-2" d="M78.38,342.91v0L16,376.86v5.83H86.45V377.5a3.51,3.51,0,1,1,7,0v5.19h12.67V342.91Z"/><path class="cls-2" d="M172.52,342.91v0l62.39,33.9v5.83H164.45V377.5a3.51,3.51,0,0,0-7,0v5.19H144.77V342.91Z"/><path class="cls-3" d="M172.53,329.09,159,190.33H92.07L78.53,329.09,64.71,346.82l45,20.91V236.57a15.8,15.8,0,0,1,15.8-15.8h0a15.8,15.8,0,0,1,15.8,15.8V367.73l45-20.91Z"/><line class="cls-4" x1="85.06" y1="362.8" x2="109.73" y2="374.6"/><line class="cls-5" x1="107.81" y1="374.6" x2="117.98" y2="374.6"/><polygon class="cls-6" points="116.84 371.9 118.91 369.6 118.75 372.69 121.84 372.53 119.55 374.6 121.84 376.67 118.75 376.51 118.91 379.6 116.84 377.3 114.77 379.6 114.93 376.51 111.84 376.67 114.14 374.6 111.84 372.53 114.93 372.69 114.77 369.6 116.84 371.9"/><line class="cls-4" x1="166.26" y1="362.8" x2="141.59" y2="374.6"/><line class="cls-5" x1="143.51" y1="374.6" x2="133.34" y2="374.6"/><polygon class="cls-6" points="134.48 371.9 132.41 369.6 132.57 372.69 129.48 372.53 131.77 374.6 129.48 376.67 132.57 376.51 132.41 379.6 134.48 377.3 136.55 379.6 136.39 376.51 139.47 376.67 137.18 374.6 139.47 372.53 136.39 372.69 136.55 369.6 134.48 371.9"/><path class="cls-2" d="M111.4,45.13H44.53c0-12.14,15-22,33.44-22S111.4,33,111.4,45.13Z"/><rect class="cls-7" x="99.85" width="51.21" height="45.13"/><rect class="cls-8" x="99.85" y="31.89" width="51.21" height="5.72"/><rect class="cls-9" x="99.85" y="45.13" width="51.21" height="32.97"/><rect class="cls-10" x="99.85" y="45.13" width="51.21" height="3.32"/><polygon class="cls-11" points="146.19 190.33 101.95 190.33 26.59 78.09 221.55 78.09 146.19 190.33"/><path class="cls-2" d="M114.94,52.77a9.7,9.7,0,0,0-9.53,7c0,.2-.09.4-.13.6a2.23,2.23,0,0,0,0,.23,5.72,5.72,0,0,1-.64,1.48,6.54,6.54,0,0,1-5.59,3,6.72,6.72,0,0,1-3.2-.81,6,6,0,0,1-3.24-5.23,6.14,6.14,0,0,1,5-5.88,10.2,10.2,0,0,0-1.76-.15c-5.33,0-9.64,4-9.64,9s4.31,9,9.64,9H115.1c5.34-.08,9.65-4.16,9.65-9.18S120.35,52.77,114.94,52.77Z"/><path class="cls-2" d="M136,52.77a9.71,9.71,0,0,1,9.53,7c0,.2.09.4.13.6s0,.16,0,.23a5.72,5.72,0,0,0,.64,1.48,6.53,6.53,0,0,0,5.59,3,6.75,6.75,0,0,0,3.2-.81,6,6,0,0,0,3.24-5.23,6.14,6.14,0,0,0-5-5.88,10.2,10.2,0,0,1,1.76-.15c5.32,0,9.64,4,9.64,9s-4.32,9-9.64,9H135.8c-5.34-.08-9.65-4.16-9.65-9.18S130.54,52.77,136,52.77Z"/><line class="cls-12" x1="86.58" y1="203.34" x2="172.45" y2="203.34"/><line class="cls-12" x1="88.03" y1="190.33" x2="175.26" y2="222.08"/><rect class="cls-2" x="161.81" y="238.26" width="6.03" height="5.3"/><polygon class="cls-11" points="235.6 226.88 225.76 226.79 161.71 87.75 235.6 87.75 235.6 226.88"/><path class="cls-2" d="M243.88,215.19h-2.57V184H196.22a5.45,5.45,0,0,0-4.27,8.83l17.67,22.36h-.2a5.87,5.87,0,0,0-5.87,5.87v22.26a6.1,6.1,0,0,0,5.26,6.17,5.87,5.87,0,0,0,6.47-5.84v-9.42a5.24,5.24,0,0,1,5.24-5.24h0a5.23,5.23,0,0,1,5.24,5.24v17.43a6.86,6.86,0,0,0,5.93,6.94A6.6,6.6,0,0,0,239,252l11.93-16.5V222.21A7,7,0,0,0,243.88,215.19Z"/><polygon class="cls-11" points="15.3 226.88 25.14 226.79 89.19 87.75 15.3 87.75 15.3 226.88"/><path class="cls-2" d="M7,215.19H9.59V184H54.68A5.45,5.45,0,0,1,59,192.84L41.28,215.2h.2a5.87,5.87,0,0,1,5.87,5.87v22.26a6.1,6.1,0,0,1-5.26,6.17,5.87,5.87,0,0,1-6.47-5.84v-9.42A5.24,5.24,0,0,0,30.38,229h0a5.23,5.23,0,0,0-5.24,5.24v17.43a6.86,6.86,0,0,1-5.93,6.94A6.61,6.61,0,0,1,11.92,252L0,235.53V222.21A7,7,0,0,1,7,215.19Z"/><path class="cls-7" d="M235.6,88.38,15.35,167.5V84.9a6.8,6.8,0,0,1,6.8-6.81H228.8a6.8,6.8,0,0,1,6.8,6.81Z"/><path class="cls-13" d="M15.3,124.36H61.88a8.28,8.28,0,0,0,8.27-8.28h0a8.28,8.28,0,0,1,8.28-8.27H118.1a8.28,8.28,0,0,0,8.28-8.28h0a8.27,8.27,0,0,1,8.27-8.27h41A8.27,8.27,0,0,0,184,83v-4.9"/><path class="cls-2" d="M162.68,186.57v-8.92a5.27,5.27,0,0,1,1.54-3.73l19.61-10.1a5.28,5.28,0,0,1,5.28,5.28V176a5.27,5.27,0,0,1-5.28,5.28h-6.1a5.27,5.27,0,0,0-5.28,5.28h-9.77"/><path class="cls-2" d="M161.81,190.73h-3.14a1.87,1.87,0,0,1-1.31-.54l-1.85-1.85A1.85,1.85,0,0,1,155,187v-3.75a1.85,1.85,0,0,1,1.86-1.85h1.26a1.85,1.85,0,0,1,1.86,1.85v2.15a1.86,1.86,0,0,0,1.86,1.86h0v3.44"/><circle class="cls-2" cx="167.84" cy="191.51" r="8.05"/><path class="cls-9" d="M176.39,238.26l8.36-44.39a3,3,0,0,0-2.94-3.54H155v47.93Z"/><circle class="cls-2" cx="125.55" cy="198.51" r="15.8"/><path class="cls-2" d="M214.15,45.13H119c0-17.28,21.31-31.28,47.59-31.28S214.15,27.85,214.15,45.13Z"/><path class="cls-7" d="M216.85,45.13H121.69c0-17.28,21.3-31.28,47.58-31.28S216.85,27.85,216.85,45.13Z"/></g></g></svg>