<svg xmlns="http://www.w3.org/2000/svg" viewBox="0 0 254.91 420.48"><defs><style>.cls-1{fill:#876340;}.cls-2{fill:#231f20;}.cls-10,.cls-13,.cls-3,.cls-4{fill:none;stroke-miterlimit:10;}.cls-3,.cls-4{stroke:#fffffd;}.cls-3{stroke-width:2.34px;}.cls-4{stroke-width:0.58px;}.cls-5{fill:#fffffd;}.cls-6{fill:#adadac;}.cls-7{fill:#fff;}.cls-8{fill:#a97c50;}.cls-9{fill:#aebee8;}.cls-10{stroke:#a97c50;stroke-width:3.01px;}.cls-11{fill:#010202;}.cls-12{fill:#303d5f;}.cls-13{stroke:#876340;stroke-width:2px;}</style></defs><g id="Layer_2" data-name="Layer 2"><g id="Mask"><path class="cls-1" d="M174.21,380.7v.05l62.4,33.89v5.84H166.15v-5.19a3.51,3.51,0,1,0-7,0v5.19H146.46V380.7Z"/><path class="cls-1" d="M80.08,380.7v.05L17.69,414.64v5.84H88.15v-5.19a3.51,3.51,0,1,1,7,0v5.19h12.67V380.7Z"/><path class="cls-2" d="M80.07,366.88,93.61,228.11h66.91l13.54,138.77,13.83,17.73-45,20.9V274.36a15.8,15.8,0,0,0-15.81-15.8h0a15.8,15.8,0,0,0-15.8,15.8V405.51l-45-20.9Z"/><line class="cls-3" x1="167.54" y1="400.59" x2="142.87" y2="412.39"/><line class="cls-4" x1="144.78" y1="412.39" x2="134.62" y2="412.39"/><polygon class="cls-5" points="135.75 409.68 133.69 407.39 133.84 410.48 130.76 410.32 133.05 412.39 130.76 414.46 133.84 414.3 133.69 417.38 135.75 415.09 137.82 417.38 137.67 414.3 140.75 414.46 138.46 412.39 140.75 410.32 137.67 410.48 137.82 407.39 135.75 409.68"/><line class="cls-3" x1="86.33" y1="400.59" x2="111" y2="412.39"/><line class="cls-4" x1="109.09" y1="412.39" x2="119.25" y2="412.39"/><polygon class="cls-5" points="118.12 409.68 120.19 407.39 120.03 410.48 123.11 410.32 120.82 412.39 123.11 414.46 120.03 414.3 120.19 417.38 118.12 415.09 116.05 417.38 116.2 414.3 113.12 414.46 115.41 412.39 113.12 410.32 116.2 410.48 116.05 407.39 118.12 409.68"/><path class="cls-6" d="M141.19,82.91h66.87c0-12.13-15-22-33.43-22S141.19,70.78,141.19,82.91Z"/><path class="cls-7" d="M101.54,0h51.21a0,0,0,0,1,0,0V57.31a25.6,25.6,0,0,1-25.6,25.6h0a25.6,25.6,0,0,1-25.6-25.6V0A0,0,0,0,1,101.54,0Z" transform="translate(254.29 82.91) rotate(-180)"/><rect class="cls-6" x="101.54" y="69.68" width="51.21" height="5.72" transform="translate(254.29 145.08) rotate(-180)"/><rect class="cls-8" x="101.54" y="82.91" width="51.21" height="32.97" transform="translate(254.29 198.8) rotate(-180)"/><rect class="cls-1" x="101.54" y="82.91" width="51.21" height="4.1" transform="translate(254.29 169.93) rotate(-180)"/><polygon class="cls-9" points="104.09 228.12 152.96 228.12 226.01 115.88 31.04 115.88 104.09 228.12"/><line class="cls-10" x1="166.02" y1="241.13" x2="80.15" y2="241.13"/><line class="cls-10" x1="164.56" y1="228.11" x2="77.34" y2="259.87"/><rect class="cls-11" x="84.75" y="276.05" width="6.03" height="5.3" transform="translate(175.54 557.39) rotate(-180)"/><polygon class="cls-9" points="16.99 264.67 26.83 264.58 90.89 125.54 16.99 125.54 16.99 264.67"/><path class="cls-1" d="M8.71,253h2.58V221.8H56.37a5.45,5.45,0,0,1,4.28,8.83L43,253h.21A5.86,5.86,0,0,1,49,258.85v22.26a6.09,6.09,0,0,1-5.25,6.17,5.87,5.87,0,0,1-6.47-5.84V272a5.25,5.25,0,0,0-5.25-5.25h0A5.25,5.25,0,0,0,26.83,272v17.42a6.85,6.85,0,0,1-5.92,6.95,6.6,6.6,0,0,1-7.29-6.57L1.7,273.32V260A7,7,0,0,1,8.71,253Z"/><polygon class="cls-9" points="237.3 264.67 227.46 264.58 163.41 125.54 237.3 125.54 237.3 264.67"/><path class="cls-1" d="M245.58,253H243V221.8H197.92a5.45,5.45,0,0,0-4.28,8.83L211.32,253h-.21a5.86,5.86,0,0,0-5.86,5.87v22.26a6.1,6.1,0,0,0,5.26,6.17,5.87,5.87,0,0,0,6.47-5.84V272a5.24,5.24,0,0,1,5.24-5.25h0a5.25,5.25,0,0,1,5.24,5.25v17.42a6.86,6.86,0,0,0,5.92,6.95,6.6,6.6,0,0,0,7.29-6.57l11.93-16.5V260A7,7,0,0,0,245.58,253Z"/><path class="cls-12" d="M17,115.88H237.25a0,0,0,0,1,0,0v22.6a6.8,6.8,0,0,1-6.8,6.8H23.8a6.8,6.8,0,0,1-6.8-6.8v-22.6A0,0,0,0,1,17,115.88Z" transform="translate(254.24 261.17) rotate(180)"/><path class="cls-2" d="M89.92,224.36v-8.92a5.28,5.28,0,0,0-1.55-3.73l-19.61-10.1a5.28,5.28,0,0,0-5.27,5.28v6.91a5.28,5.28,0,0,0,5.27,5.28h6.11a5.27,5.27,0,0,1,5.27,5.27h9.78"/><path class="cls-11" d="M90.79,228.52h3.14a1.86,1.86,0,0,0,1.31-.55l1.84-1.84a1.86,1.86,0,0,0,.55-1.31v-3.75a1.86,1.86,0,0,0-1.86-1.86H94.5a1.87,1.87,0,0,0-1.86,1.86v2.15a1.85,1.85,0,0,1-1.85,1.86h0v3.44"/><circle class="cls-11" cx="84.75" cy="229.3" r="8.05"/><path class="cls-1" d="M76.2,276.05l-8.35-44.39a3,3,0,0,1,2.94-3.55H97.56v47.94Z"/><circle class="cls-7" cx="127.04" cy="236.29" r="15.8"/><path class="cls-6" d="M56.14,82.91h77.47c0-17.27-17.34-31.27-38.73-31.27S56.14,65.64,56.14,82.91Z"/><path class="cls-7" d="M53.94,82.91h77.47c0-17.27-17.34-31.27-38.74-31.27S53.94,65.64,53.94,82.91Z"/><path class="cls-7" d="M131.41,109.16H111.24V92.84S131.41,88.18,131.41,109.16Z"/><line class="cls-13" x1="15.03" y1="226.48" y2="226.48"/><line class="cls-13" x1="17.34" y1="236.29" x2="2.32" y2="236.29"/><line class="cls-13" x1="19.66" y1="246.11" x2="4.63" y2="246.11"/><line class="cls-13" x1="239.89" y1="226.48" x2="254.91" y2="226.48"/><line class="cls-13" x1="237.57" y1="236.29" x2="252.6" y2="236.29"/><line class="cls-13" x1="235.25" y1="246.11" x2="250.28" y2="246.11"/><ellipse class="cls-9" cx="94.87" cy="145.29" rx="33.08" ry="12.43"/><ellipse class="cls-9" cx="160.21" cy="145.29" rx="32.25" ry="12.43"/><polygon class="cls-7" points="159.96 163.39 150.58 168.32 152.37 157.88 144.78 150.48 155.27 148.96 159.96 139.46 164.64 148.96 175.13 150.48 167.54 157.88 169.33 168.32 159.96 163.39"/></g></g></svg>